<?xml version="1.0" encoding="UTF-8"?>
<svg version="1.1" xmlns="http://www.w3.org/2000/svg" width="130" height="37">
<path d="M0 0 C42.9 0 85.8 0 130 0 C130 12.21 130 24.42 130 37 C87.1 37 44.2 37 0 37 C0 24.79 0 12.58 0 0 Z " fill="#FCFCFC" transform="translate(0,0)"/>
<path d="M0 0 C1.32 0 2.64 0 4 0 C4 1.32 4 2.64 4 4 C7.96 4 11.92 4 16 4 C14 9 14 9 13 11 C13.99 11 14.98 11 16 11 C16 12.32 16 13.64 16 15 C13.03 15 10.06 15 7 15 C7.33 13.02 7.66 11.04 8 9 C7.01 9 6.02 9 5 9 C5 10.98 5 12.96 5 15 C3.35 15.33 1.7 15.66 0 16 C0 10.72 0 5.44 0 0 Z " fill="#6AD0F6" transform="translate(103,10)"/>
<path d="M0 0 C1.65 0 3.3 0 5 0 C5 1.32 5 2.64 5 4 C6.175625 4.2165625 6.175625 4.2165625 7.375 4.4375 C10 5 10 5 12 6 C12.36103152 12.3782235 12.36103152 12.3782235 10.875 14.9375 C8.07837528 16.52225401 6.1506804 16.45947423 3 16 C0.60898189 13.66471658 0.0327215 12.3368133 -0.29296875 8.984375 C-0.25816406 7.91703125 -0.22335938 6.8496875 -0.1875 5.75 C-0.14689453 4.13351562 -0.14689453 4.13351562 -0.10546875 2.484375 C-0.07066406 1.66453125 -0.03585938 0.8446875 0 0 Z " fill="#19B8F2" transform="translate(89,10)"/>
<path d="M0 0 C1.67578125 1.23046875 1.67578125 1.23046875 3 3 C3.29296875 5.26171875 3.29296875 5.26171875 3.1875 7.6875 C3.16042969 8.49574219 3.13335937 9.30398437 3.10546875 10.13671875 C3.07066406 10.75160156 3.03585938 11.36648437 3 12 C-5.23992322 12.621881 -5.23992322 12.621881 -8.0625 10.3125 C-9.16422775 7.59490489 -9.4466994 5.9035461 -9 3 C-6.73529086 -0.64869805 -4.03159541 -0.50394943 0 0 Z " fill="#10B5F1" transform="translate(72,14)"/>
<path d="M0 0 C1.875 1.375 1.875 1.375 3 3 C3 3.66 3 4.32 3 5 C0.69 5 -1.62 5 -4 5 C-4 5.66 -4 6.32 -4 7 C-0.535 6.505 -0.535 6.505 3 6 C2.42655063 8.86724686 2.1385485 9.8614515 0 12 C-2.375 12.375 -2.375 12.375 -5 12 C-7.77389443 9.97580677 -8.85519403 8.84814923 -9.4375 5.4375 C-9 3 -9 3 -7.875 1.1875 C-5.12844028 -0.55198782 -3.18153026 -0.39769128 0 0 Z " fill="#30BFF3" transform="translate(85,14)"/>
<path d="M0 0 C4.70054457 0.21366112 9.41428541 0.96451606 14 2 C14 2.99 14 3.98 14 5 C10.47320901 7.35119399 8.97120515 7.21443452 4.8125 7.125 C3.72582031 7.10695313 2.63914062 7.08890625 1.51953125 7.0703125 C0.27236328 7.03550781 0.27236328 7.03550781 -1 7 C-1.04254356 5.00045254 -1.04080783 2.99958364 -1 1 C-0.67 0.67 -0.34 0.34 0 0 Z " fill="#F6CC54" transform="translate(24,26)"/>
<path d="M0 0 C0.66 0 1.32 0 2 0 C3.58706088 3.17412177 3.28477127 6.53638667 3 10 C2 13 2 13 1 15 C-1.375 14.75 -1.375 14.75 -4 14 C-5.3125 11.9375 -5.3125 11.9375 -6 10 C-5.54625 9.62875 -5.0925 9.2575 -4.625 8.875 C-2.53170749 6.45966249 -1.92269373 4.03170796 -1 1 C-0.67 0.67 -0.34 0.34 0 0 Z " fill="#88CA6C" transform="translate(41,11)"/>
<path d="M0 0 C1.65 0 3.3 0 5 0 C5.16894443 1.74978157 5.33506309 3.49983612 5.5 5.25 C5.5928125 6.22453125 5.685625 7.1990625 5.78125 8.203125 C5.95800168 10.46302153 6 12.73320193 6 15 C3.13275314 14.42655063 2.1385485 14.1385485 0 12 C-0.1953125 9.1796875 -0.1953125 9.1796875 -0.125 5.875 C-0.10695312 4.77929688 -0.08890625 3.68359375 -0.0703125 2.5546875 C-0.04710937 1.71164062 -0.02390625 0.86859375 0 0 Z " fill="#29BDF2" transform="translate(55,10)"/>
<path d="M0 0 C2.97 0 5.94 0 9 0 C8.34 1.98 7.68 3.96 7 6 C7.99 6 8.98 6 10 6 C10 7.32 10 8.64 10 10 C7.03 10 4.06 10 1 10 C1.66 7.69 2.32 5.38 3 3 C2.01 3 1.02 3 0 3 C0 2.01 0 1.02 0 0 Z " fill="#0AB3F1" transform="translate(109,15)"/>
<path d="M0 0 C5.71658336 -0.45732667 8.48649253 0.47726246 13 4 C12.25 6.4375 12.25 6.4375 11 9 C8.875 9.8125 8.875 9.8125 7 10 C6.6596875 9.1028125 6.6596875 9.1028125 6.3125 8.1875 C5.10339849 5.78088585 5.10339849 5.78088585 2.375 4.4375 C1.59125 3.963125 0.8075 3.48875 0 3 C0 2.01 0 1.02 0 0 Z " fill="#6EBDE8" transform="translate(26,2)"/>
<path d="M0 0 C0 4.29 0 8.58 0 13 C-0.66 13 -1.32 13 -2 13 C-5.75960806 9.24039194 -6.58894145 6.24099655 -7 1 C-5 0 -5 0 0 0 Z " fill="#FE791F" transform="translate(19,17)"/>
<path d="M0 0 C0.99 0 1.98 0 3 0 C4.4606285 2.64738916 5 3.89448334 5 7 C3.02 7 1.04 7 -1 7 C-1.66 8.32 -2.32 9.64 -3 11 C-3.99 11 -4.98 11 -6 11 C-5.55443866 5.95030484 -3.44186399 3.52381313 0 0 Z " fill="#FE1616" transform="translate(19,3)"/>
<path d="M0 0 C2.31 0 4.62 0 7 0 C7 2.64 7 5.28 7 8 C4.125 8.125 4.125 8.125 1 8 C0.34 7.34 -0.32 6.68 -1 6 C-0.625 2.875 -0.625 2.875 0 0 Z " fill="#FE761A" transform="translate(25,14)"/>
<path d="M0 0 C1.65 0 3.3 0 5 0 C5 1.32 5 2.64 5 4 C6.32 4.33 7.64 4.66 9 5 C8.01 5 7.02 5 6 5 C6.33 5.598125 6.66 6.19625 7 6.8125 C8 9 8 9 8 12 C6.68 11.67 5.36 11.34 4 11 C4 7.7 4 4.4 4 1 C3.01 1 2.02 1 1 1 C1 4.63 1 8.26 1 12 C0.67 12 0.34 12 0 12 C0 8.04 0 4.08 0 0 Z " fill="#7AD5F6" transform="translate(89,10)"/>
<path d="M0 0 C1.65 0.33 3.3 0.66 5 1 C4.814375 2.093125 4.62875 3.18625 4.4375 4.3125 C3.7421932 7.93624133 3.7421932 7.93624133 5 11 C2.69 11.33 0.38 11.66 -2 12 C-1.01 11.67 -0.02 11.34 1 11 C0.9278125 10.28972656 0.855625 9.57945313 0.78125 8.84765625 C0.6884375 7.92855469 0.595625 7.00945313 0.5 6.0625 C0.4071875 5.14597656 0.314375 4.22945312 0.21875 3.28515625 C0 1 0 1 0 0 Z " fill="#AFE5F9" transform="translate(60,14)"/>
<path d="M0 0 C0.33 0 0.66 0 1 0 C1 2.97 1 5.94 1 9 C-1.97 9 -4.94 9 -8 9 C-7.01 8.67 -6.02 8.34 -5 8 C-5.33 6.02 -5.66 4.04 -6 2 C-5.01 2 -4.02 2 -3 2 C-3 3.98 -3 5.96 -3 8 C-2.01 8 -1.02 8 0 8 C0 5.36 0 2.72 0 0 Z " fill="#87D9F7" transform="translate(74,17)"/>
<path d="M0 0 C0.99 0 1.98 0 3 0 C3 3.3 3 6.6 3 10 C2.01 10 1.02 10 0 10 C0 6.7 0 3.4 0 0 Z " fill="#10B6F2" transform="translate(104,15)"/>
<path d="M0 0 C0.99 0 1.98 0 3 0 C1.90493508 2.19012983 0.68148597 3.41812012 -1.0625 5.125 C-1.61035156 5.66382813 -2.15820312 6.20265625 -2.72265625 6.7578125 C-3.14417969 7.16773438 -3.56570313 7.57765625 -4 8 C-3.34 8.66 -2.68 9.32 -2 10 C-3.32 10.33 -4.64 10.66 -6 11 C-5.55443866 5.95030484 -3.44186399 3.52381313 0 0 Z " fill="#FE5050" transform="translate(19,3)"/>
<path d="M0 0 C1.32 0 2.64 0 4 0 C3.42655063 2.86724686 3.1385485 3.8614515 1 6 C-1.625 6.125 -1.625 6.125 -4 6 C-3.34 5.38125 -2.68 4.7625 -2 4.125 C0.2284549 2.24362573 0.2284549 2.24362573 0 0 Z " fill="#49C7F4" transform="translate(84,20)"/>
<path d="M0 0 C-0.598125 0.268125 -1.19625 0.53625 -1.8125 0.8125 C-5.22084219 2.6627429 -6.85142361 4.77713542 -9 8 C-9.22223194 5.25913944 -9.34781139 3.56036279 -7.875 1.1875 C-5.22464043 -0.49106106 -3.06753576 -0.20450238 0 0 Z " fill="#43C4F3" transform="translate(72,14)"/>
<path d="M0 0 C2.64 0 5.28 0 8 0 C8 0.66 8 1.32 8 2 C6.02 2 4.04 2 2 2 C1.67 2.66 1.34 3.32 1 4 C0.67 2.68 0.34 1.36 0 0 Z " fill="#E7F4FB" transform="translate(24,0)"/>
<path d="M0 0 C0.99 0 1.98 0 3 0 C2.125 4.75 2.125 4.75 1 7 C0.34 6.67 -0.32 6.34 -1 6 C-0.67 4.02 -0.34 2.04 0 0 Z " fill="#DEF4FD" transform="translate(108,19)"/>
<path d="M0 0 C2.475 0.495 2.475 0.495 5 1 C4.01 2.98 3.02 4.96 2 7 C1.34 7 0.68 7 0 7 C0 4.69 0 2.38 0 0 Z " fill="#CFEFFC" transform="translate(60,14)"/>
</svg>
